<?xml version="1.0" standalone="no"?>
<!DOCTYPE svg PUBLIC "-//W3C//DTD SVG 20010904//EN"
 "http://www.w3.org/TR/2001/REC-SVG-20010904/DTD/svg10.dtd">
<svg version="1.0" xmlns="http://www.w3.org/2000/svg"
 width="324.000000pt" height="324.000000pt" viewBox="0 0 324.000000 324.000000"
 preserveAspectRatio="xMidYMid meet">
<metadata>
Created by potrace 1.11, written by Peter Selinger 2001-2013
</metadata>
<g transform="translate(0.000000,324.000000) scale(0.100000,-0.100000)"
fill="#000000" stroke="none">
<path d="M1515 3209 c-132 -43 -215 -59 -316 -59 -194 0 -339 -44 -429 -130
-16 -15 -157 -130 -260 -212 -31 -25 -66 -65 -81 -91 -14 -26 -39 -62 -56 -80
-74 -77 -149 -195 -171 -264 -13 -39 -47 -110 -77 -158 -86 -136 -106 -204
-106 -352 0 -68 5 -158 11 -201 5 -42 9 -156 8 -252 -2 -168 -1 -178 25 -255
35 -99 58 -140 158 -272 43 -57 104 -150 135 -206 32 -56 68 -121 80 -144 38
-66 98 -118 200 -170 52 -26 121 -70 152 -96 120 -100 171 -124 327 -151 50
-8 149 -34 220 -57 184 -59 250 -59 399 -1 102 39 112 41 181 35 134 -11 259
38 465 182 42 29 102 65 135 80 166 75 190 97 279 248 31 54 86 134 122 178
87 108 110 147 135 226 26 81 98 290 110 318 23 55 49 191 49 260 0 57 -7 99
-29 168 -36 110 -51 171 -86 340 -29 141 -46 191 -77 224 -41 45 -119 38 -153
-13 -20 -31 -49 -30 -87 1 -39 33 -95 34 -131 2 -15 -12 -27 -28 -27 -34 0 -7
-5 -24 -12 -38 -17 -38 -54 -33 -98 15 -32 35 -43 40 -80 40 -37 0 -47 -5 -79
-40 -55 -60 -90 -50 -95 30 -5 60 -37 90 -97 90 -29 0 -51 -6 -59 -15 -16 -20
-54 -19 -71 1 -10 12 -10 22 -1 48 33 92 -12 166 -101 166 -63 0 -75 42 -27
97 50 56 35 146 -29 173 -57 23 -51 72 11 97 32 13 44 25 59 60 24 56 24 67
-1 112 -11 20 -24 49 -30 64 -17 47 -76 67 -200 66 -89 0 -118 -4 -195 -30z"/>
</g>
</svg>
